<svg width="22" height="18" viewBox="0 0 22 18" fill="none" xmlns="http://www.w3.org/2000/svg">
<path d="M11.1815 0C16.5736 0 21.0596 3.87976 22.0001 9C21.0596 14.1202 16.5736 18 11.1815 18C5.78927 18 1.3033 14.1202 0.362793 9C1.3033 3.87976 5.78927 0 11.1815 0ZM11.1815 16C15.4171 16 19.0415 13.052 19.9589 9C19.0415 4.94803 15.4171 2 11.1815 2C6.94575 2 3.32137 4.94803 2.40393 9C3.32137 13.052 6.94575 16 11.1815 16ZM11.1815 13.5C8.69613 13.5 6.68141 11.4853 6.68141 9C6.68141 6.51472 8.69613 4.5 11.1815 4.5C13.6667 4.5 15.6815 6.51472 15.6815 9C15.6815 11.4853 13.6667 13.5 11.1815 13.5ZM11.1815 11.5C12.5622 11.5 13.6815 10.3807 13.6815 9C13.6815 7.6193 12.5622 6.5 11.1815 6.5C9.80075 6.5 8.68141 7.6193 8.68141 9C8.68141 10.3807 9.80075 11.5 11.1815 11.5Z" fill="#7E55D7"/>
</svg>
