<svg width="860" height="340" viewBox="0 0 860 340" fill="none" xmlns="http://www.w3.org/2000/svg">
<path d="M129.733 72.9333C128 73.2 126.667 73.6 126.667 73.7333C126.667 73.8667 131.333 83.3333 137.067 94.6667C148.533 117.333 152.533 130 152.667 144.4C152.667 152.667 152.4 153.867 149.067 156.667C146.8 158.667 142.133 160.267 135.867 161.467C119.333 164.4 100.933 159.333 88 148.267L82.6666 143.733V152.933C82.6666 171.6 75.7333 185.467 56.5333 205.467C49.7333 212.533 43.7333 219.867 43.2 221.867C41.3333 229.333 54.8 249.733 72.6666 266.4C78.2666 271.6 83.4666 276 84.1333 276C84.6666 276 85.6 273.733 86 270.933C89.2 252.533 95.7333 238.933 108.133 225.867C115.6 217.867 117.333 215.333 117.333 211.733C117.333 204.8 120.533 193.067 124.133 186.667C128.133 179.6 133.333 175.6 138.533 175.6C144.267 175.6 147.6 179.2 149.333 187.067C151.333 196.267 153.733 199.6 159.6 201.2C167.6 203.467 167.6 203.6 168.667 190.933C170 174 171.2 170.133 176.267 167.6C178.667 166.4 186.933 164.133 194.667 162.533C211.867 159.067 220.133 156 230.267 149.467C248.667 137.6 258.4 117.867 250.4 108.8C246.8 104.8 223.867 98.4 204.533 96C192 94.4 188.8 93.3333 187.467 90C186.533 87.6 176.4 82.8 160.533 77.2C150 73.6 135.733 71.6 129.733 72.9333ZM178.4 102.933C183.067 107.6 177.2 115.733 171.2 113.067C165.467 110.4 167.6 101.333 174 101.333C175.6 101.333 177.467 102 178.4 102.933Z" fill="#4435AB"/>
<path d="M110 80.5333C97.4666 88.6667 91.6 97.8667 87.4666 115.733C83.6 132.8 84.6666 136.4 96.2666 144.8C107.733 153.2 124.933 156.8 137.6 153.333C143.067 151.733 145.333 148.8 145.333 143.333C145.333 137.333 141.067 122.4 136 110.533C131.467 99.7333 119.467 78 117.6 76.8C117.067 76.5333 113.733 78.2667 110 80.5333Z" fill="#4435AB"/>
<path d="M641.333 100V117.333H633.333H625.333V132V146.667H633.333H641.333V185.733C641.333 230.667 642.133 235.867 650.133 242.4C652.667 244.533 656.933 246.933 659.733 247.867C665.6 249.733 691.6 251.467 696.533 250.133C700 249.333 700 249.2 700 235.333V221.333H694.133C691.067 221.333 686.4 220.667 684 219.867C676.667 217.2 676 213.6 676 178V146.667H688.667H701.333V132V117.333H688.667H676V100V82.6667H658.667H641.333V100Z" fill="#4435AB"/>
<path d="M372 117.333C362.8 118.533 351.867 122.8 345.867 127.333L341.333 130.8V124.8V118.667H324H306.667V204V289.467L323.733 289.067L340.667 288.667L341.067 261.6L341.333 234.4L346.267 238.8C356.667 247.867 372.533 251.6 390.267 249.2C423.2 244.8 444 219.067 444 182.667C444 163.2 438.8 148.8 426.8 135.733C414 121.733 392.8 114.533 372 117.333ZM386.4 148.667C415.6 157.333 418.933 202.267 391.467 216.267C380.133 222 363.733 220.667 353.333 213.2C344.933 207.067 340.933 198.8 340.267 186C339.6 173.6 340.933 168.133 346.667 160.133C351.467 153.6 355.733 150.667 363.733 148.533C372.267 146.267 378.267 146.267 386.4 148.667Z" fill="#4435AB"/>
<path d="M517.6 120C504.4 123.467 493.733 129.467 485.067 138.133C471.867 151.333 467.2 165.733 468.267 190C468.8 202.667 469.333 204.8 473.733 213.733C494.4 255.733 559.2 263.467 591.333 227.867C593.867 224.933 596 222.267 596 221.6C596 221.067 590.133 217.2 583.067 213.067L570.133 205.6L566 209.2C555.867 218 552.4 219.333 538 219.333C526.4 219.333 523.733 218.933 517.2 215.867C509.2 212.133 504.533 206.8 503.2 200.133L502.4 196L552.8 195.733L603.333 195.333L603.2 182C603.2 172.8 602.4 166.4 600.667 161.333C589.733 128.533 553.733 110.533 517.6 120ZM553.733 152.4C557.6 154.667 561.2 158.267 563.333 161.867C569.467 172.4 570.8 172 534.667 172C508.267 172 502.667 171.733 502.667 170.133C502.667 166.267 511.467 155.333 517.067 152.133C528.133 146.133 543.067 146.267 553.733 152.4Z" fill="#4435AB"/>
<path d="M757.333 119.467C745.067 122.667 733.6 128.933 730 134.4C722.933 145.067 722.267 164.533 728.4 175.067C735.2 186.533 747.467 192.533 774.4 197.467C782.933 198.933 791.867 201.067 794.267 202C799.467 204.267 800.933 208.4 798 212.8C791.467 222.8 769.2 222.133 748.8 211.6C744.267 209.333 740.133 207.333 739.6 207.333C738.933 207.333 734.667 212.4 730 218.667L721.333 230L725.067 233.067C727.067 234.8 732.933 238.133 738 240.667C761.733 252.267 793.067 253.467 812.933 243.733C827.067 236.8 832.133 228.533 833.067 211.067C833.867 197.2 831.467 190.267 823.467 182.933C816.133 176.133 807.467 173.067 784.133 168.667C764.133 164.8 758.667 162.267 758.667 156.8C758.667 152.8 762 150 768.933 147.867C776.8 145.6 789.6 147.867 802 153.867L811.733 158.4L814.267 155.6C815.733 154 819.733 148.8 823.333 144.267C828.667 137.067 829.333 135.467 827.867 134C823.733 130.133 807.333 122.267 798.267 119.867C786.667 116.8 767.867 116.667 757.333 119.467Z" fill="#4435AB"/>
<path d="M135.2 186.933C129.733 193.2 129.067 194.8 126.667 208.533L124.133 222.533L114.8 231.733C108 238.267 104.133 243.6 100.8 250.533C96.2666 260.133 92.2666 276.667 93.7333 280.4C94.6666 282.667 120.133 293.6 131.6 296.533C136.133 297.733 143.467 299.067 147.867 299.467C155.867 300.4 156 300.4 156 297.067C156 295.2 157.067 292.4 158.4 290.8C160.8 287.867 161.467 287.733 192 283.333C232.133 277.6 237.333 276.267 237.333 272C237.333 270.4 238.533 266.933 239.867 264.133C242.533 259.2 242.533 259.067 239.867 254.8C237.067 250.133 235.6 249.467 216.667 243.733C197.2 237.867 194.667 236.4 190.8 228.667C186.133 219.733 179.333 215.333 164.8 211.867C154 209.2 152.8 208.533 149.2 203.6C147.067 200.8 145.067 196.133 144.533 193.467C142.8 183.733 139.867 181.6 135.2 186.933ZM176 242C177.333 243.6 177.333 244.8 176.267 247.333C173.733 252.667 165.333 251.2 165.333 245.333C165.333 240.4 172.667 238 176 242Z" fill="#4435AB"/>
</svg>
