<svg width="32" height="32" viewBox="0 0 32 32" fill="none" xmlns="http://www.w3.org/2000/svg">
<path d="M16 29.3333C8.63616 29.3333 2.66663 23.3637 2.66663 16C2.66663 8.6362 8.63616 2.66667 16 2.66667C23.3637 2.66667 29.3333 8.6362 29.3333 16C29.3333 23.3637 23.3637 29.3333 16 29.3333ZM16 26.6667C21.891 26.6667 26.6666 21.8911 26.6666 16C26.6666 10.109 21.891 5.33334 16 5.33334C10.1089 5.33334 5.33329 10.109 5.33329 16C5.33329 21.8911 10.1089 26.6667 16 26.6667ZM10.6666 17.3333H21.3333C21.3333 20.2788 18.9454 22.6667 16 22.6667C13.0544 22.6667 10.6666 20.2788 10.6666 17.3333Z" fill="#333333"/>
</svg>
